<?xml version="1.0" encoding="UTF-8" standalone="no"?>
<svg
   xmlns:dc="http://purl.org/dc/elements/1.1/"
   xmlns:cc="http://creativecommons.org/ns#"
   xmlns:rdf="http://www.w3.org/1999/02/22-rdf-syntax-ns#"
   xmlns:svg="http://www.w3.org/2000/svg"
   xmlns="http://www.w3.org/2000/svg"
   xmlns:sodipodi="http://sodipodi.sourceforge.net/DTD/sodipodi-0.dtd"
   xmlns:inkscape="http://www.inkscape.org/namespaces/inkscape"
   width="235.89999"
   height="61.388451"
   viewBox="0 0 188.72 49.11076"
   version="1.1"
   id="svg2"
   inkscape:version="0.48.2 r9819"
   sodipodi:docname="Nexus4.svg">
  <metadata
     id="metadata36">
    <rdf:RDF>
      <cc:Work
         rdf:about="">
        <dc:format>image/svg+xml</dc:format>
        <dc:type
           rdf:resource="http://purl.org/dc/dcmitype/StillImage" />
      </cc:Work>
    </rdf:RDF>
  </metadata>
  <defs
     id="defs34" />
  <sodipodi:namedview
     pagecolor="#ffffff"
     bordercolor="#666666"
     borderopacity="1"
     objecttolerance="10"
     gridtolerance="10"
     guidetolerance="10"
     inkscape:pageopacity="0"
     inkscape:pageshadow="2"
     inkscape:window-width="1600"
     inkscape:window-height="837"
     id="namedview32"
     showgrid="false"
     fit-margin-top="0"
     fit-margin-left="0"
     fit-margin-right="0"
     fit-margin-bottom="0"
     inkscape:zoom="2.965445"
     inkscape:cx="218.05324"
     inkscape:cy="-4.3735977"
     inkscape:window-x="-8"
     inkscape:window-y="-8"
     inkscape:window-maximized="1"
     inkscape:current-layer="svg2" />
  <g
     id="#8b8480f8"
     transform="translate(0,-0.9)">
    <path
       d="m 183.35,1.16 c 0.68,-0.06 2.04,-0.19 2.72,-0.26 -0.01,3.88 0,7.75 -0.02,11.62 0.67,0.02 2,0.06 2.67,0.08 l -0.09,1.84 c -0.64,0.01 -1.93,0.02 -2.57,0.02 0,1.21 0,2.42 0.01,3.62 -0.64,-0.01 -1.92,-0.04 -2.56,-0.05 0.01,-1.18 0.02,-2.37 0.04,-3.55 -2.67,0 -5.33,-0.01 -7.99,-0.11 2.23,-4.61 5.25,-8.77 7.79,-13.21 m -4.42,11.4 c 1.53,-0.02 3.07,-0.03 4.61,-0.03 -0.02,-2.59 -0.01,-5.18 -0.01,-7.77 -1.53,2.6 -3.07,5.2 -4.6,7.8 z"
       id="path5"
       inkscape:connector-curvature="0"
       style="opacity:0.97000002;fill:#8b8480" />
  </g>
  <g
     id="#929296ff"
     transform="translate(0,-0.9)">
    <path
       d="m 145.39,21.43 c 4.48,-3.26 10.49,-3.63 15.78,-2.59 4.9,0.8 9.24,4.48 9.6,9.65 -4.27,0.94 -3.34,-4.54 -6.48,-5.76 -4.93,-2.77 -11.49,-2.72 -16.35,0.17 -2.7,1.5 -3.15,5.85 -0.3,7.44 6.29,3.51 14.38,1.48 20.4,5.75 3.35,2.34 3.49,7.75 0.48,10.43 -3.11,2.74 -7.47,3.37 -11.47,3.49 -4.58,0.03 -9.58,-0.82 -13,-4.12 -1.89,-1.68 -2.33,-4.27 -3.03,-6.56 3.95,-0.81 3.46,4.05 6.05,5.59 4.3,3 10.01,3.21 14.97,2.02 2.29,-0.59 4.88,-1.81 5.53,-4.31 0.67,-2.22 -0.7,-4.53 -2.72,-5.44 -6.04,-2.86 -13.32,-1.42 -19.14,-4.88 -3.94,-2.21 -3.88,-8.35 -0.32,-10.88 z"
       id="path8"
       inkscape:connector-curvature="0"
       style="fill:#929296" />
    <path
       d="m 4.65,24.23 c 4.66,-3.54 10.42,-6.33 16.42,-5.15 4.4,0.42 8.23,4.03 8.46,8.53 0.39,7.06 0.04,14.14 0.16,21.2 -0.73,0 -2.2,0.01 -2.93,0.01 C 26.64,41.9 26.97,34.96 26.61,28.05 26.43,24.18 22.79,21.42 19.1,21.31 13.52,20.71 8.67,24.1 4.58,27.45 4.6,26.65 4.64,25.03 4.65,24.23 z"
       id="path10"
       inkscape:connector-curvature="0"
       style="fill:#929296" />
    <path
       d="m 40.79,22.74 c 6.42,-6.13 18.27,-5.56 23.51,1.81 2.07,2.69 2.4,6.15 2.68,9.4 -8.81,0.1 -17.63,0.02 -26.45,0.05 0.05,-0.56 0.14,-1.68 0.19,-2.25 7.8,-0.03 15.6,0.07 23.41,-0.06 -0.85,-2.81 -1.68,-5.86 -4.08,-7.78 -5.43,-4.77 -14.71,-3.58 -18.89,2.28 -4.6,6.22 -2.34,16.63 5.04,19.63 6.22,2.69 13.17,0.41 18.49,-3.2 0.45,0.33 1.35,1 1.8,1.33 -6.37,5.8 -16.68,7.43 -24.09,2.7 -7.87,-5.08 -8.75,-17.82 -1.61,-23.91 z"
       id="path12"
       inkscape:connector-curvature="0"
       style="fill:#929296" />
    <path
       d="m 0,19.43 c 0.74,0.01 2.21,0.01 2.94,0.01 0,9.79 0,19.58 0,29.37 -0.73,0 -2.2,0.01 -2.94,0.02 l 0,-29.4 z"
       id="path14"
       inkscape:connector-curvature="0"
       style="fill:#929296" />
    <path
       d="m 106.23,19.48 c 0.74,-0.01 2.22,-0.04 2.96,-0.06 0.02,6.21 -0.04,12.43 -0.01,18.65 -0.01,2.35 0.28,4.95 2.07,6.69 2.54,2.51 6.5,2.83 9.84,2.08 4.03,-0.82 7.26,-3.53 10.54,-5.82 0.53,3.78 -3.2,5.32 -5.93,6.73 -4.54,2.22 -10.19,2.63 -14.77,0.3 -3.2,-1.73 -4.7,-5.46 -4.66,-8.96 -0.09,-6.54 0.04,-13.07 -0.04,-19.61 z"
       id="path16"
       inkscape:connector-curvature="0"
       style="fill:#929296" />
    <path
       d="m 133.06,19.44 c 0.73,0 2.21,0 2.94,0 0,9.79 0.01,19.59 -0.01,29.39 -0.73,-0.01 -2.2,-0.01 -2.93,-0.02 0,-9.79 0,-19.58 0,-29.37 z"
       id="path18"
       inkscape:connector-curvature="0"
       style="fill:#929296" />
  </g>
  <g
     id="#d31446e3"
     transform="translate(0,-0.9)">
    <path
       d="m 98.22,19.31 c 1.28,0.04 2.55,0.07 3.83,0.1 -3.68,3.87 -7.5,7.6 -11.2,11.45 -1.3,1.38 -2.92,2.4 -4.71,3 -0.45,-2.21 1.28,-3.64 2.58,-5.05 3.17,-3.16 6.29,-6.37 9.5,-9.5 z"
       id="path21"
       inkscape:connector-curvature="0"
       style="opacity:0.88999999;fill:#d31446" />
  </g>
  <g
     id="#008cc5e5"
     transform="translate(0,-0.9)">
    <path
       d="m 68.66,19.37 c 1.03,0.02 3.08,0.06 4.11,0.08 3.6,4.01 7.7,7.56 11.2,11.65 0.22,0.65 0.67,1.94 0.89,2.59 C 82.92,33.49 81.32,32.41 80.05,31 76.31,27.07 72.37,23.33 68.66,19.37 z"
       id="path24"
       inkscape:connector-curvature="0"
       style="opacity:0.9;fill:#008cc5" />
  </g>
  <g
     id="#e7b220e7"
     transform="translate(0,-0.9)">
    <path
       d="m 80.64,36.65 c 1.09,-1.24 2.58,-1.9 4.2,-2.16 -0.24,1.6 -0.9,3.1 -2.14,4.17 -3.38,3.39 -6.76,6.8 -10.11,10.22 -1.33,0 -2.65,0 -3.97,0 3.95,-4.13 8,-8.17 12.02,-12.23 z"
       id="path27"
       inkscape:connector-curvature="0"
       style="opacity:0.91000001;fill:#e7b220" />
  </g>
  <g
     id="#3e953ae0"
     transform="translate(0,-0.9)">
    <path
       d="m 85.63,34.57 c 3.16,0.05 5.02,2.68 7.03,4.71 3.11,3.2 6.33,6.3 9.35,9.59 -1.29,0.03 -2.58,0.05 -3.87,0.07 -3.46,-3.55 -7.02,-7.02 -10.47,-10.58 -1.08,-1.01 -1.54,-2.45 -2.04,-3.79 z"
       id="path30"
       inkscape:connector-curvature="0"
       style="opacity:0.87999998;fill:#3e953a" />
  </g>
</svg>
